<svg xmlns="http://www.w3.org/2000/svg" viewBox="0 0 512 512" width="100%" height="100%">
  <rect width="512" height="512" rx="96" fill="#0c0a09"/>
  <circle cx="256" cy="256" r="210" fill="none" stroke="#eab308" stroke-width="4" stroke-dasharray="8 8" opacity="0.4"/>
  <g fill="#ffffff" transform="translate(106, 126) scale(0.6)">
    <!-- Stylized church / cross / M monogram emblem -->
    <path d="M250 20 L250 80 L310 80 L310 130 L250 130 L250 280 L200 280 L200 130 L140 130 L140 80 L200 80 L200 20 Z" fill="#eab308"/>
    <path d="M50 400 L120 180 L180 320 L250 160 L320 320 L380 180 L450 400 L380 400 L340 280 L250 420 L160 280 L120 400 Z" fill="#ffffff"/>
  </g>
  <text x="256" y="440" text-anchor="middle" fill="#facc15" font-family="system-ui, -apple-system, sans-serif" font-weight="800" font-size="34" letter-spacing="4">MEVAM</text>
  <text x="256" y="475" text-anchor="middle" fill="#a8a29e" font-family="system-ui, -apple-system, sans-serif" font-weight="600" font-size="18" letter-spacing="3">ITAPEMA SERTÃO</text>
</svg>
